<svg xmlns="http://www.w3.org/2000/svg" viewBox="0 0 32 32">
  <defs>
    <linearGradient id="parquetGradient" x1="0%" y1="0%" x2="100%" y2="100%">
      <stop offset="0%" style="stop-color:#8BC34A;stop-opacity:1" />
      <stop offset="100%" style="stop-color:#4CAF50;stop-opacity:1" />
    </linearGradient>
  </defs>

  <!-- Database/storage base -->
  <rect x="2" y="20" width="28" height="8" rx="2" fill="url(#parquetGradient)" opacity="0.8"/>

  <!-- Column bars representing columnar storage -->
  <rect x="4" y="8" width="3" height="12" fill="url(#parquetGradient)"/>
  <rect x="9" y="6" width="3" height="14" fill="url(#parquetGradient)"/>
  <rect x="14" y="10" width="3" height="10" fill="url(#parquetGradient)"/>
  <rect x="19" y="4" width="3" height="16" fill="url(#parquetGradient)"/>
  <rect x="24" y="12" width="3" height="8" fill="url(#parquetGradient)"/>

  <!-- Data points on columns -->
  <circle cx="5.5" cy="10" r="1" fill="#FFFFFF"/>
  <circle cx="5.5" cy="14" r="1" fill="#FFFFFF"/>
  <circle cx="5.5" cy="18" r="1" fill="#FFFFFF"/>

  <circle cx="10.5" cy="8" r="1" fill="#FFFFFF"/>
  <circle cx="10.5" cy="12" r="1" fill="#FFFFFF"/>
  <circle cx="10.5" cy="16" r="1" fill="#FFFFFF"/>

  <circle cx="15.5" cy="12" r="1" fill="#FFFFFF"/>
  <circle cx="15.5" cy="16" r="1" fill="#FFFFFF"/>

  <circle cx="20.5" cy="6" r="1" fill="#FFFFFF"/>
  <circle cx="20.5" cy="10" r="1" fill="#FFFFFF"/>
  <circle cx="20.5" cy="14" r="1" fill="#FFFFFF"/>
  <circle cx="20.5" cy="18" r="1" fill="#FFFFFF"/>

  <circle cx="25.5" cy="14" r="1" fill="#FFFFFF"/>
  <circle cx="25.5" cy="18" r="1" fill="#FFFFFF"/>
</svg>