<svg xmlns="http://www.w3.org/2000/svg" viewBox="0 0 32 32">
  <defs>
    <linearGradient id="gitlabGradient" x1="0%" y1="0%" x2="100%" y2="100%">
      <stop offset="0%" style="stop-color:#FC6D26;stop-opacity:1" />
      <stop offset="100%" style="stop-color:#E24329;stop-opacity:1" />
    </linearGradient>
  </defs>

  <!-- GitLab fox-like logo simplified -->
  <path d="M16 2C8.3 2 2 8.3 2 16s6.3 14 14 14 14-6.3 14-14S23.7 2 16 2zm6.5 20.5c-.3.3-.7.3-1 0L16 17l-5.5 5.5c-.3.3-.7.3-1 0s-.3-.7 0-1L15 16l-5.5-5.5c-.3-.3-.3-.7 0-1s.7-.3 1 0L16 15l5.5-5.5c.3-.3.7-.3 1 0s.3.7 0 1L17 16l5.5 5.5c.3.3.3.7 0 1z" fill="url(#gitlabGradient)"/>

  <!-- Simplified fox face -->
  <circle cx="16" cy="12" r="2" fill="#FFFFFF"/>
  <circle cx="13" cy="10" r="1" fill="#FFFFFF"/>
  <circle cx="19" cy="10" r="1" fill="#FFFFFF"/>
  <path d="M14 14c1-1 2-1 3 0" stroke="#FFFFFF" stroke-width="1" fill="none" stroke-linecap="round"/>
</svg>